# xmcd
#
# Track frame offsets: 
#        150
#        21118
#        43683
#        54791
#        73746
#        87591
#        104157
#        120739
#        137061
#        164855
#        184957
#
# Disc length: 2760 seconds
#
# Revision: 0
# Processed by: cddbd v1.5.2PL0 Copyright (c) Steve Scherf et al.
# Submitted via: ExactAudioCopy v1.0b3
#
DISCID=a50ac60b
DTITLE=Five Horse Johnson - The Taking Of Black Heart
DYEAR=2013
DGENRE=Blues
TTITLE0=The Job
TTITLE1=Keep On Diggin'
TTITLE2=Black Heart Baby
TTITLE3=Mexico
TTITLE4=Beating In My Hand
TTITLE5=Quick On the Trigger
TTITLE6=Smash and Grab
TTITLE7=Hangin' Tree
TTITLE8=You're My Girl (I Don't Want To Talk About It)
TTITLE9=Shoot My Way Out
TTITLE10=Die In The River
EXTD=
EXTT0=
EXTT1=
EXTT2=
EXTT3=
EXTT4=
EXTT5=
EXTT6=
EXTT7=
EXTT8=
EXTT9=
EXTT10=
PLAYORDER=
